<?xml version="1.0" encoding="UTF-8"?>
<!DOCTYPE svg PUBLIC "-//W3C//DTD SVG 1.1//EN" "http://www.w3.org/Graphics/SVG/1.1/DTD/svg11.dtd">
<!-- Creator: CorelDRAW -->
<svg xmlns="http://www.w3.org/2000/svg" xml:space="preserve" width="170mm" height="100mm" version="1.1" style="shape-rendering:geometricPrecision; text-rendering:geometricPrecision; image-rendering:optimizeQuality; fill-rule:evenodd; clip-rule:evenodd"
viewBox="0 0 17000 10000"
 xmlns:xlink="http://www.w3.org/1999/xlink"
 xmlns:xodm="http://www.corel.com/coreldraw/odm/2003">
 <defs>
  <style type="text/css">
   <![CDATA[
    .fil1 {fill:none}
    .fil4 {fill:black}
    .fil0 {fill:#16CC9C}
    .fil2 {fill:#C053DB}
    .fil3 {fill:black;fill-rule:nonzero}
   ]]>
  </style>
 </defs>
 <g id="Слой_x0020_1">
  <metadata id="CorelCorpID_0Corel-Layer"/>
  <g id="_1653045526912">
   <path class="fil0" d="M11562.02 3612.08c0.44,265.06 -33.79,517.27 -75.03,765.17 11.14,-20.07 21.67,-36.86 31.4,-49.55 101.5,-132.49 225.31,-96.43 313.49,34.64 41.81,62.16 109.82,235.16 148.8,330.72 136.48,-33.47 594.82,-432.36 670.55,-500.08 208.83,-186.73 422.79,-391.37 614.33,-595.99 96.05,-102.6 35.58,-42.36 121,-124.66l-24.97 70.99c-64.35,133.5 -332.37,436.93 -438.41,552.26 -147.9,160.85 -800.12,871.79 -1030.89,765.01 -84.57,-39.13 -140.79,-257.37 -224.98,-384.91 -24.18,42.57 -45.41,100.49 -57.94,135.42 -91.67,255.67 -178.53,563.16 -258.92,827.25l-3.67 -3.26c-5.01,59.05 -20.97,87.64 -101.2,116.2l-110.08 -160.28 -33.11 39.13c-2.93,-613.06 177.25,-1196.75 159.45,-1810.34 -2.13,-82.89 63.34,-151.82 146.23,-153.95 82.89,-2.13 151.82,63.34 153.95,146.23zm400.09 1083.15c-1.81,-0.4 -3.71,-0.67 -5.72,-0.83 1.74,0.46 3.68,0.71 5.72,0.83z"/>
  </g>
  <path class="fil1" d="M11411.93 3615.94c15.37,598.05 -186.69,1252.58 -186.69,1814.2 -3.16,0.52 219.56,-669.11 249.67,-759.29 191.5,-573.58 266.8,-284.22 433.7,85.55 102.52,227.13 1335.28,-1016.43 1477.95,-1284.07"/>
  <g id="_1653045526048">
   <path class="fil2" d="M-21587.05 -6652.28c455.59,-832.3 2246.28,-3346.06 3144.04,-3627.7 643.38,-201.85 784.51,437.9 782.78,937.5 -0.52,151.89 -64.48,1234.33 -111.82,1878.97 158.64,-242.15 315.94,-488.93 501.63,-728.08 238.55,-307.24 705.05,-846.01 1116.23,-861.88 378.49,-1270.57 2202.2,-1711.65 3303.57,-1280.2 509.64,199.64 820.89,615.03 560.8,1158.67l-94.46 161.56c-9.02,29.59 -3.27,15.2 -19.43,46.27 -14.9,-98.98 20.11,-90.21 66.51,-227.3 151.4,-447.4 1.59,-763.03 -422.35,-958.26 -964.97,-444.39 -2831.05,-31.21 -3159.56,1156.86 93.03,54.14 179.34,148.96 254.69,295.71 119.32,232.39 199.36,696.33 -137.52,758.46 -364.5,67.22 -432.82,-476.76 -419.98,-717.25 1.61,-30.15 4.19,-59.82 7.27,-89.22 -331.21,68.65 -759.55,680.08 -886.69,856.68 -145.58,202.21 -665.02,1044.4 -733.05,1110.03 -82.88,79.95 -217.8,72 -268.5,-23.56 -86.17,-162.37 -0.91,-1061.67 13.69,-1297.28 11.93,-192.72 181.54,-1820.75 -134.39,-1823.79 -691.24,-6.67 -2618.84,2861.72 -2946.28,3451.92 -49.18,115.21 -182.44,168.72 -297.64,119.54 -115.21,-49.18 -168.72,-182.44 -119.54,-297.65zm5622.03 -2000.45c-2.02,176.46 15.86,426.01 111.81,447.78 85.23,-86.2 -52.76,-368.46 -108.52,-443.64 -1.08,-1.45 -2.21,-2.72 -3.29,-4.14zm113.32 448.13c0.5,0.11 0.98,0.26 1.49,0.35l-0.21 -0.25 -1.28 -0.1z"/>
  </g>
  <path class="fil1" d="M-21378.46 -6563.22c113.67,-266.24 3262.87,-5111.23 3517.78,-3047.87 67.42,545.69 -168.33,2605.78 -99.02,2715.9 198.25,-218.41 1689.05,-3018.02 2223.66,-1621.53 224.6,586.7 -481.06,700.3 -343.43,-313.66 287.48,-2117.86 4722.83,-2013.46 3684.34,-188.31l-8.58 51.52"/>
  <path class="fil3" d="M3696.51 -5584.49c0,-52.07 -13.97,-92.29 -41.48,-120.65 -27.94,-28.79 -66.47,-42.76 -116,-42.76 -44.02,0 -77.89,13.97 -102.44,42.76 -24.13,28.36 -36.41,68.58 -36.41,120.65l-229.45 0c0,-117.27 32.6,-207.86 97.79,-272.21 65.62,-63.92 157.48,-96.09 276.86,-96.09 80.01,0 148.59,14.39 205.74,43.6 57.15,28.79 100.33,70.7 130.39,125.73 29.63,55.03 44.45,121.5 44.45,198.97l0 941.49 -229.45 0 0 -941.49zm-234.52 960.12c-105.84,0 -185,-30.06 -237.92,-89.75 -52.91,-60.11 -79.58,-150.28 -79.58,-271.36 0,-144.35 33.02,-252.73 99.48,-324.27 66.04,-71.54 165.52,-107.1 298.87,-107.1l164.68 0 17.36 210.82 -180.77 0c-57.99,0 -101.6,18.2 -130.38,55.03 -28.79,36.83 -43.18,92.29 -43.18,165.52 0,50.8 12.27,88.06 37.67,113.03 24.98,24.98 63.08,37.26 113.46,37.26 58.84,0 102.44,-16.51 131.23,-49.11 29.21,-32.6 43.6,-81.7 43.6,-146.9l26.25 118.96c-0.85,63.92 -11.01,117.26 -30.48,160.02 -19.47,43.18 -48.26,74.93 -86.78,96.1 -38.53,21.16 -86.36,31.75 -143.51,31.75zm1263.65 -1305.99l234.52 0 -348.4 1287.36 -186.27 0 -350.94 -1287.36 235.8 0 208.28 947.42 207.01 -947.42zm953.76 345.87c0,-52.07 -13.97,-92.29 -41.48,-120.65 -27.94,-28.79 -66.47,-42.76 -116,-42.76 -44.02,0 -77.89,13.97 -102.44,42.76 -24.13,28.36 -36.41,68.58 -36.41,120.65l-229.45 0c0,-117.27 32.6,-207.86 97.79,-272.21 65.62,-63.92 157.48,-96.09 276.86,-96.09 80.01,0 148.59,14.39 205.74,43.6 57.15,28.79 100.33,70.7 130.39,125.73 29.63,55.03 44.45,121.5 44.45,198.97l0 941.49 -229.45 0 0 -941.49zm-234.52 960.12c-105.84,0 -185,-30.06 -237.92,-89.75 -52.91,-60.11 -79.58,-150.28 -79.58,-271.36 0,-144.35 33.02,-252.73 99.48,-324.27 66.04,-71.54 165.52,-107.1 298.87,-107.1l164.68 0 17.36 210.82 -180.77 0c-57.99,0 -101.6,18.2 -130.38,55.03 -28.79,36.83 -43.18,92.29 -43.18,165.52 0,50.8 12.27,88.06 37.67,113.03 24.98,24.98 63.08,37.26 113.46,37.26 58.84,0 102.44,-16.51 131.23,-49.11 29.21,-32.6 43.6,-81.7 43.6,-146.9l26.25 118.96c-0.85,63.92 -11.01,117.26 -30.48,160.02 -19.47,43.18 -48.26,74.93 -86.78,96.1 -38.53,21.16 -86.36,31.75 -143.51,31.75zm-2943.86 -6096.84c-82.98,0 -153.25,-14.82 -210.82,-44.88 -58,-29.63 -102.45,-73.23 -132.93,-130.81 -30.48,-57.15 -45.72,-126.57 -45.72,-207.43l0 -543.56c0,-85.09 15.24,-157.48 45.72,-217.59 30.48,-59.69 74.93,-105.41 133.35,-136.74 58.42,-31.75 128.27,-47.41 210.4,-47.41 82.55,0 153.24,15.66 212.09,47.41 58.42,31.33 103.29,77.47 133.77,138.01 30.48,60.96 45.72,133.77 45.72,218.86l0 42.33 -232.83 0 0 -42.33c0,-58.42 -13.97,-104.14 -41.07,-136.31 -27.51,-32.18 -65.19,-48.26 -114.3,-48.26 -49.53,0 -88.05,15.66 -115.99,47.83 -27.52,31.75 -41.49,76.63 -41.49,134.2l0 543.56c0,52.07 13.97,92.29 41.49,120.65 27.94,28.79 66.46,42.76 115.99,42.76 49.11,0 87.21,-14.82 114.73,-44.45 27.94,-29.64 41.91,-71.12 41.91,-124.04l0 -41.06 234.1 0 0 41.06c0,81.7 -15.24,151.55 -46.57,209.55 -30.9,58 -75.77,102.02 -134.19,132.93 -58.85,30.48 -129.97,45.72 -213.36,45.72zm1097.7 -1305.99l235.37 0 0 1287.36 -235.37 0 0 -1287.36zm-505.04 0l235.8 0 0 1287.36 -235.8 0 0 -1287.36zm140.13 543.14l512.23 0 0 223.52 -512.23 0 0 -223.52zm1220.89 762.85c-77.89,0 -144.78,-14.82 -200.66,-44.03 -55.46,-29.21 -98.21,-71.97 -127.42,-127.85 -29.64,-55.88 -44.03,-122.76 -44.03,-201.5l0 -588.01c0,-77.47 14.39,-143.94 44.03,-198.97 29.21,-55.03 71.96,-96.52 127.42,-125.31 55.88,-28.36 122.77,-42.75 200.66,-42.75 77.47,0 143.93,14.39 198.97,42.75 55.03,28.79 96.52,70.28 125.3,125.31 28.37,55.03 42.76,121.5 42.76,198.97l0 591.82c0,77.47 -14.39,144.35 -42.76,199.81 -28.78,55.03 -70.27,97.37 -125.3,126.15 -55.04,29.21 -121.5,43.61 -198.97,43.61zm-2.54 -229.45c41.91,0 74.93,-13.12 98.64,-38.95 23.28,-26.24 35.13,-63.07 35.13,-111.33l0 -571.5c0,-46.57 -11.85,-82.55 -35.13,-108.38 -23.71,-26.24 -56.73,-39.37 -98.64,-39.37 -41.49,0 -74.08,13.13 -98.21,39.37 -23.71,25.83 -35.99,61.81 -35.99,108.38l0 571.5c0,47.41 11.86,84.24 35.56,110.49 23.29,26.67 56.31,39.79 98.64,39.79zm766.24 -12.28l271.35 0c30.06,0 52.92,-9.31 69.01,-27.94 16.08,-18.62 24.13,-45.72 24.13,-81.28l0 -93.13c0,-44.45 -12.7,-79.16 -38.53,-104.14 -25.4,-24.98 -60.11,-37.25 -104.14,-37.25l-221.82 0 0 -223.1 221.82 0c38.1,0 67.31,-10.58 88.06,-31.75 20.74,-21.17 30.9,-50.8 30.9,-88.48l0 -70.69c0,-25.83 -8.04,-46.15 -24.13,-60.96 -16.09,-14.82 -38.52,-22.44 -67.31,-22.44l-249.34 0 0 -223.1 282.78 0c93.14,0 165.53,23.29 216.75,70.28 51.65,46.56 77.05,112.6 77.05,197.69l0 109.22c0,62.66 -16.51,114.73 -50.38,155.37 -33.44,41.06 -80.43,67.31 -141.82,78.74 68.58,11.85 121.92,39.37 159.18,83.39 37.67,43.61 56.72,100.76 56.72,171.03l0 126.58c0,93.13 -27.09,165.94 -80.85,217.59 -53.77,51.65 -129.54,77.47 -228.18,77.47l-291.25 0 0 -223.1zm-149.02 -1064.26l235.8 0 0 1287.36 -235.8 0 0 -1287.36zm1805.95 0l235.79 0 0 1287.36 -235.79 0 0 -1287.36zm-692.15 1064.26l217.17 0c45.29,0 80.43,-13.54 105.41,-39.79 24.97,-26.67 37.25,-63.5 37.25,-111.76l0 -96.52c0,-32.17 -5.5,-59.69 -16.93,-82.55 -11.01,-22.86 -27.52,-40.22 -48.69,-52.07 -21.59,-11.85 -47.41,-18.2 -77.04,-18.2l-217.17 0 0 -223.1 258.23 0c71.12,0 131.66,13.55 182.03,40.22 50.38,27.09 88.9,66.04 115.57,117.26 26.25,51.22 39.8,113.45 39.8,186.27l0 160.86c0,71.97 -14.4,133.78 -42.34,185 -28.36,51.22 -69.42,90.17 -124.03,117.26 -54.61,26.67 -119.81,40.22 -196.01,40.22l-233.25 0 0 -223.1zm-141.4 -1064.26l235.8 0 0 1287.36 -235.8 0 0 -1287.36zm-4933.52 3048.42l235.37 0 0 1287.36 -235.37 0 0 -1287.36zm-505.04 0l235.8 0 0 1287.36 -235.8 0 0 -1287.36zm140.13 0l498.68 0 0 223.1 -498.68 0 0 -223.1zm873.33 0l235.8 0 0 1810.6 -235.8 0 0 -1810.6zm473.71 1305.99c-60.96,0 -114.3,-19.48 -159.17,-58.42 -45.3,-38.95 -77.05,-92.71 -96.1,-162.56l17.36 -199.39c0,42.75 5.93,79.58 17.78,110.49 12.28,30.48 29.63,53.76 52.07,69.85 22.86,16.08 49.95,24.13 81.28,24.13 47.41,0 84.24,-18.21 111.34,-55.04 26.67,-36.83 40.21,-88.47 40.21,-154.51l0 -483.87c0,-63.5 -13.54,-113.46 -40.21,-149.44 -27.1,-35.98 -63.93,-53.76 -111.34,-53.76 -31.33,0 -58.42,8.04 -81.28,23.7 -22.44,15.67 -39.79,38.1 -52.07,68.16 -11.85,29.63 -17.78,65.19 -17.78,106.68l-26.25 -178.65c26.67,-75.35 64.35,-133.35 113.03,-174.41 48.69,-40.64 102.87,-61.38 162.56,-61.38 60.96,0 113.46,16.08 156.64,47.83 43.6,31.75 76.62,78.32 98.63,139.7 22.44,60.96 33.45,135.05 33.45,221.83l0 502.5c0,87.63 -11.43,162.56 -35.14,224.79 -23.71,62.65 -57.57,110.06 -102.45,142.66 -44.45,32.6 -98.63,49.11 -162.56,49.11zm895.78 0c-77.89,0 -144.78,-14.82 -200.66,-44.03 -55.46,-29.21 -98.21,-71.97 -127.42,-127.85 -29.64,-55.88 -44.03,-122.76 -44.03,-201.5l0 -588.01c0,-77.47 14.39,-143.94 44.03,-198.97 29.21,-55.03 71.96,-96.52 127.42,-125.31 55.88,-28.36 122.77,-42.75 200.66,-42.75 77.47,0 143.93,14.39 198.97,42.75 55.03,28.79 96.52,70.28 125.3,125.31 28.37,55.03 42.76,121.5 42.76,198.97l0 591.82c0,77.47 -14.39,144.35 -42.76,199.81 -28.78,55.03 -70.27,97.37 -125.3,126.15 -55.04,29.21 -121.5,43.61 -198.97,43.61zm-2.54 -229.45c41.91,0 74.93,-13.12 98.64,-38.95 23.28,-26.24 35.13,-63.07 35.13,-111.33l0 -571.5c0,-46.57 -11.85,-82.55 -35.13,-108.38 -23.71,-26.24 -56.73,-39.37 -98.64,-39.37 -41.49,0 -74.08,13.13 -98.21,39.37 -23.71,25.83 -35.99,61.81 -35.99,108.38l0 571.5c0,47.41 11.86,84.24 35.56,110.49 23.29,26.67 56.31,39.79 98.64,39.79zm617.22 -1076.54l235.8 0 0 1287.36 -235.8 0 0 -1287.36zm143.94 0l456.35 0 0 223.1 -456.35 0 0 -223.1zm636.26 0l235.8 0 0 1810.6 -235.8 0 0 -1810.6zm473.71 1305.99c-60.96,0 -114.3,-19.48 -159.17,-58.42 -45.3,-38.95 -77.05,-92.71 -96.1,-162.56l17.36 -199.39c0,42.75 5.93,79.58 17.78,110.49 12.28,30.48 29.63,53.76 52.07,69.85 22.86,16.08 49.95,24.13 81.28,24.13 47.41,0 84.24,-18.21 111.34,-55.04 26.67,-36.83 40.21,-88.47 40.21,-154.51l0 -483.87c0,-63.5 -13.54,-113.46 -40.21,-149.44 -27.1,-35.98 -63.93,-53.76 -111.34,-53.76 -31.33,0 -58.42,8.04 -81.28,23.7 -22.44,15.67 -39.79,38.1 -52.07,68.16 -11.85,29.63 -17.78,65.19 -17.78,106.68l-26.25 -178.65c26.67,-75.35 64.35,-133.35 113.03,-174.41 48.69,-40.64 102.87,-61.38 162.56,-61.38 60.96,0 113.46,16.08 156.64,47.83 43.6,31.75 76.62,78.32 98.63,139.7 22.44,60.96 33.45,135.05 33.45,221.83l0 502.5c0,87.63 -11.43,162.56 -35.14,224.79 -23.71,62.65 -57.57,110.06 -102.45,142.66 -44.45,32.6 -98.63,49.11 -162.56,49.11zm1081.62 -960.12c0,-52.07 -13.97,-92.29 -41.48,-120.65 -27.94,-28.79 -66.47,-42.76 -116,-42.76 -44.02,0 -77.89,13.97 -102.44,42.76 -24.13,28.36 -36.41,68.58 -36.41,120.65l-229.45 0c0,-117.27 32.6,-207.86 97.79,-272.21 65.62,-63.92 157.48,-96.09 276.86,-96.09 80.01,0 148.59,14.39 205.74,43.6 57.15,28.79 100.33,70.7 130.39,125.73 29.63,55.03 44.45,121.5 44.45,198.97l0 941.49 -229.45 0 0 -941.49zm-234.52 960.12c-105.84,0 -185,-30.06 -237.92,-89.75 -52.91,-60.11 -79.58,-150.28 -79.58,-271.36 0,-144.35 33.02,-252.73 99.48,-324.27 66.04,-71.54 165.52,-107.1 298.87,-107.1l164.68 0 17.36 210.82 -180.77 0c-57.99,0 -101.6,18.2 -130.38,55.03 -28.79,36.83 -43.18,92.29 -43.18,165.52 0,50.8 12.27,88.06 37.67,113.03 24.98,24.98 63.08,37.26 113.46,37.26 58.84,0 102.44,-16.51 131.23,-49.11 29.21,-32.6 43.6,-81.7 43.6,-146.9l26.25 118.96c-0.85,63.92 -11.01,117.26 -30.48,160.02 -19.47,43.18 -48.26,74.93 -86.78,96.1 -38.53,21.16 -86.36,31.75 -143.51,31.75zm2377.43 -1305.99l226.9 0 0 1287.36 -210.82 0 0 -912.71 21.17 54.61 -157.48 513.51 -151.13 0 -165.1 -488.95 28.36 -79.17 0 912.71 -210.82 0 0 -1287.36 226.91 0 196 665.91 196.01 -665.91zm1023.62 1286.09l0 -872.91 29.63 32.17 -364.49 840.74 -188.81 0 0 -1286.09 219.71 0 0 872.92 -29.63 -32.18 367.03 -840.74 185.84 0 0 1286.09 -219.28 0zm491.91 -1286.09l235.8 0 0 1810.6 -235.8 0 0 -1810.6zm473.71 1305.99c-60.96,0 -114.3,-19.48 -159.17,-58.42 -45.3,-38.95 -77.05,-92.71 -96.1,-162.56l17.36 -199.39c0,42.75 5.93,79.58 17.78,110.49 12.28,30.48 29.63,53.76 52.07,69.85 22.86,16.08 49.95,24.13 81.28,24.13 47.41,0 84.24,-18.21 111.34,-55.04 26.67,-36.83 40.21,-88.47 40.21,-154.51l0 -483.87c0,-63.5 -13.54,-113.46 -40.21,-149.44 -27.1,-35.98 -63.93,-53.76 -111.34,-53.76 -31.33,0 -58.42,8.04 -81.28,23.7 -22.44,15.67 -39.79,38.1 -52.07,68.16 -11.85,29.63 -17.78,65.19 -17.78,106.68l-26.25 -178.65c26.67,-75.35 64.35,-133.35 113.03,-174.41 48.69,-40.64 102.87,-61.38 162.56,-61.38 60.96,0 113.46,16.08 156.64,47.83 43.6,31.75 76.62,78.32 98.63,139.7 22.44,60.96 33.45,135.05 33.45,221.83l0 502.5c0,87.63 -11.43,162.56 -35.14,224.79 -23.71,62.65 -57.57,110.06 -102.45,142.66 -44.45,32.6 -98.63,49.11 -162.56,49.11zm895.78 0c-77.89,0 -144.78,-14.82 -200.66,-44.03 -55.46,-29.21 -98.21,-71.97 -127.42,-127.85 -29.64,-55.88 -44.03,-122.76 -44.03,-201.5l0 -588.01c0,-77.47 14.39,-143.94 44.03,-198.97 29.21,-55.03 71.96,-96.52 127.42,-125.31 55.88,-28.36 122.77,-42.75 200.66,-42.75 77.47,0 143.93,14.39 198.97,42.75 55.03,28.79 96.52,70.28 125.3,125.31 28.37,55.03 42.76,121.5 42.76,198.97l0 591.82c0,77.47 -14.39,144.35 -42.76,199.81 -28.78,55.03 -70.27,97.37 -125.3,126.15 -55.04,29.21 -121.5,43.61 -198.97,43.61zm-2.54 -229.45c41.91,0 74.93,-13.12 98.64,-38.95 23.28,-26.24 35.13,-63.07 35.13,-111.33l0 -571.5c0,-46.57 -11.85,-82.55 -35.13,-108.38 -23.71,-26.24 -56.73,-39.37 -98.64,-39.37 -41.49,0 -74.08,13.13 -98.21,39.37 -23.71,25.83 -35.99,61.81 -35.99,108.38l0 571.5c0,47.41 11.86,84.24 35.56,110.49 23.29,26.67 56.31,39.79 98.64,39.79zm766.24 -12.28l271.35 0c30.06,0 52.92,-9.31 69.01,-27.94 16.08,-18.62 24.13,-45.72 24.13,-81.28l0 -93.13c0,-44.45 -12.7,-79.16 -38.53,-104.14 -25.4,-24.98 -60.11,-37.25 -104.14,-37.25l-221.82 0 0 -223.1 221.82 0c38.1,0 67.31,-10.58 88.06,-31.75 20.74,-21.17 30.9,-50.8 30.9,-88.48l0 -70.69c0,-25.83 -8.04,-46.15 -24.13,-60.96 -16.09,-14.82 -38.52,-22.44 -67.31,-22.44l-249.34 0 0 -223.1 282.78 0c93.14,0 165.53,23.29 216.75,70.28 51.65,46.56 77.05,112.6 77.05,197.69l0 109.22c0,62.66 -16.51,114.73 -50.38,155.37 -33.44,41.06 -80.43,67.31 -141.82,78.74 68.58,11.85 121.92,39.37 159.18,83.39 37.67,43.61 56.72,100.76 56.72,171.03l0 126.58c0,93.13 -27.09,165.94 -80.85,217.59 -53.77,51.65 -129.54,77.47 -228.18,77.47l-291.25 0 0 -223.1zm-149.02 -1064.26l235.8 0 0 1287.36 -235.8 0 0 -1287.36zm1505.8 345.87c0,-52.07 -13.97,-92.29 -41.48,-120.65 -27.94,-28.79 -66.47,-42.76 -116,-42.76 -44.02,0 -77.89,13.97 -102.44,42.76 -24.13,28.36 -36.41,68.58 -36.41,120.65l-229.45 0c0,-117.27 32.6,-207.86 97.79,-272.21 65.62,-63.92 157.48,-96.09 276.86,-96.09 80.01,0 148.59,14.39 205.74,43.6 57.15,28.79 100.33,70.7 130.39,125.73 29.63,55.03 44.45,121.5 44.45,198.97l0 941.49 -229.45 0 0 -941.49zm-234.52 960.12c-105.84,0 -185,-30.06 -237.92,-89.75 -52.91,-60.11 -79.58,-150.28 -79.58,-271.36 0,-144.35 33.02,-252.73 99.48,-324.27 66.04,-71.54 165.52,-107.1 298.87,-107.1l164.68 0 17.36 210.82 -180.77 0c-57.99,0 -101.6,18.2 -130.38,55.03 -28.79,36.83 -43.18,92.29 -43.18,165.52 0,50.8 12.27,88.06 37.67,113.03 24.98,24.98 63.08,37.26 113.46,37.26 58.84,0 102.44,-16.51 131.23,-49.11 29.21,-32.6 43.6,-81.7 43.6,-146.9l26.25 118.96c-0.85,63.92 -11.01,117.26 -30.48,160.02 -19.47,43.18 -48.26,74.93 -86.78,96.1 -38.53,21.16 -86.36,31.75 -143.51,31.75zm1241.63 -1305.99l235.37 0 0 1287.36 -235.37 0 0 -1287.36zm-505.04 0l235.8 0 0 1287.36 -235.8 0 0 -1287.36zm140.13 543.14l512.23 0 0 223.52 -512.23 0 0 -223.52zm1397 742.95l0 -872.91 29.63 32.17 -364.49 840.74 -188.81 0 0 -1286.09 219.71 0 0 872.92 -29.63 -32.18 367.03 -840.74 185.84 0 0 1286.09 -219.28 0zm792.06 -414.02c-71.12,0 -131.66,-13.55 -182.04,-40.64 -50.8,-26.67 -88.9,-65.62 -115.57,-117.26 -26.24,-51.23 -39.79,-113.03 -39.79,-185.85l0 -185.84c0,-71.97 14.39,-133.77 42.33,-185 27.94,-51.22 69.43,-90.17 124.04,-117.26 54.61,-26.67 119.8,-40.22 196,-40.22l282.79 0 0 223.1 -266.7 0c-45.3,0 -80.86,13.55 -105.41,39.79 -24.98,26.67 -37.25,63.5 -37.25,111.76l0 121.5c0,32.17 5.5,59.69 16.93,82.55 11.01,22.44 27.52,39.79 48.68,52.07 21.59,11.85 47.42,17.78 77.05,17.78l266.7 0 0 223.52 -307.76 0zm194.73 415.29l0 -1287.36 235.8 0 0 1287.36 -235.8 0zm-520.7 0l219.29 -553.3 226.9 57.15 -195.58 496.15 -250.61 0zm-14992.78 1761.06l235.37 0 0 1287.36 -235.37 0 0 -1287.36zm-505.04 0l235.8 0 0 1287.36 -235.8 0 0 -1287.36zm140.13 543.14l512.23 0 0 223.52 -512.23 0 0 -223.52zm1406.73 -197.27c0,-52.07 -13.97,-92.29 -41.48,-120.65 -27.94,-28.79 -66.47,-42.76 -116,-42.76 -44.02,0 -77.89,13.97 -102.44,42.76 -24.13,28.36 -36.41,68.58 -36.41,120.65l-229.45 0c0,-117.27 32.6,-207.86 97.79,-272.21 65.62,-63.92 157.48,-96.09 276.86,-96.09 80.01,0 148.59,14.39 205.74,43.6 57.15,28.79 100.33,70.7 130.39,125.73 29.63,55.03 44.45,121.5 44.45,198.97l0 941.49 -229.45 0 0 -941.49zm-234.52 960.12c-105.84,0 -185,-30.06 -237.92,-89.75 -52.91,-60.11 -79.58,-150.28 -79.58,-271.36 0,-144.35 33.02,-252.73 99.48,-324.27 66.04,-71.54 165.52,-107.1 298.87,-107.1l164.68 0 17.36 210.82 -180.77 0c-57.99,0 -101.6,18.2 -130.38,55.03 -28.79,36.83 -43.18,92.29 -43.18,165.52 0,50.8 12.27,88.06 37.67,113.03 24.98,24.98 63.08,37.26 113.46,37.26 58.84,0 102.44,-16.51 131.23,-49.11 29.21,-32.6 43.6,-81.7 43.6,-146.9l26.25 118.96c-0.85,63.92 -11.01,117.26 -30.48,160.02 -19.47,43.18 -48.26,74.93 -86.78,96.1 -38.53,21.16 -86.36,31.75 -143.51,31.75z"/>
  <g id="_1653045527152">
   <path class="fil0" d="M1710.08 -6758.97c719.42,-142.7 1474.17,-277.14 2199.13,-386.96 69.56,-10.54 263.21,-41.56 324.88,-39.64l86.72 12.63 -68.63 54.71c-53.82,33.39 -238.07,100.29 -304.65,124.11 -679.81,243.29 -1444.38,427.92 -2144.57,623.27 -107.17,25.65 -214.85,-40.44 -240.5,-147.62 -25.65,-107.17 40.45,-214.85 147.62,-240.5z"/>
  </g>
  <path class="fil1" d="M1756.52 -6564.91c832.98,-199.32 1738.22,-382.27 2564.29,-608.03"/>
  <g id="_1652645246576">
   <path class="fil0" d="M3428.62 -7126.48c-237.76,829.31 -464.89,1821.91 -807.99,2606.14 -79.88,182.58 -338.08,699.17 -509.59,793.27 -75.88,41.64 -180.94,45.08 -254.11,-2.76l-48.86 -45.83 64.22 -1.49 49.55 3.06c142.51,-0.39 195.69,-112.23 249.82,-228.15 99.13,-212.31 199.19,-455.64 269.32,-678.7 255.97,-814.23 408.16,-1712.88 601.62,-2546.76 27.95,-106.6 137.02,-170.35 243.62,-142.4 106.6,27.95 170.35,137.02 142.4,243.62z"/>
  </g>
  <path class="fil1" d="M3235.61 -7177.09c-161.18,614.77 -518.32,2271.36 -839.66,2895.62 -196.17,381.1 -271.78,649.39 -587.88,505.81"/>
  <g id="_1652645239664">
   <path class="fil0" d="M6252.55 -7963.31c96.84,-254.07 538.02,-1438.08 615.05,-1474.6 45.08,-21.37 70.43,101.6 47.31,272.82 -32.63,241.67 -106.99,561.33 -161.12,856.53 103.87,-213.74 275.71,-567.55 299.5,-613.61 56.7,-109.78 309.9,-639.08 291.78,-269.4 -7.87,160.61 -18.57,304.04 -25.51,476.4 -21.42,531.15 -33.14,1084.88 -36.28,1592.61 -0.89,144.84 1.25,68.2 -5.02,210.12l-15.38 -60.78c-43.44,-264.68 -40.31,-1387.92 -21.67,-1961.17 -100.58,164.89 -267.06,542.32 -353.33,736.79 -62.99,141.98 -207.53,518.58 -264.83,517.68 -86.84,-1.36 -43.1,-371.78 20.68,-752.11 -110.25,289.52 -218.77,588.05 -328.56,890.85 -46.38,124.52 -98.01,130.97 -115.3,14.4 -17.29,-116.57 6.3,-312.01 52.68,-436.53z"/>
  </g>
  <path class="fil1" d="M6283.86 -7752.24c0.98,-2.62 581.23,-1566.86 561.39,-1410.35 -33.19,261.72 -334.07,1600.13 -134.74,1157.48 93.8,-208.29 523.05,-1167.8 586.34,-1148.85 -32.7,462.6 -50.87,1874.16 -18.59,2241.52"/>
  <g id="_1652645237696">
   <path class="fil0" d="M958.84 -12239.85c-13.68,36.18 -27.02,72.58 -39.88,109.16 32.45,-7.32 69.69,-25.3 111.36,-49.11 210.58,-120.34 431.15,-385.07 572.62,-673.41 -12.35,1.01 -24.98,2.38 -38.08,4.39 -216.05,33.1 -456.2,187.25 -632.42,367.85 44.87,64.65 57.61,158.83 26.4,241.12zm-105.93 317.6c-90.31,325.48 -115.7,660.49 46.42,983.09 57.04,113.5 292.97,79.29 384.11,23.61 243.81,-148.94 505.04,-593.87 598.62,-904.17 106.64,-353.58 182.35,-956.6 -168.13,-1028.19 -87.93,240.65 -233.39,461.95 -370.7,620.27 -111.97,129.11 -318.15,313.34 -490.32,305.39zm861.17 -1220.17c10.88,-39.81 19.72,-79.33 26.3,-118.22l-0.11 2.88c12.27,-161.09 2.25,-80.93 30.27,-240.43l0.01 0 19.72 120.53c9.2,81.05 7.03,163.39 -4.11,245.44 488.45,103.36 491.48,852.72 375.33,1343.62 -100.4,424.32 -378.15,934.03 -682.23,1172.55 -245.72,192.74 -666.47,230.43 -850.6,-101.83 -284.77,-513.87 -197.16,-1100.29 -18.08,-1634.51 5.92,-25.02 14.49,-49.46 25.37,-73.65l1.54 -4.37c8.12,-21.42 18.65,-40.46 30.96,-56.88 16.29,-26.86 35.09,-53.75 55.91,-81.13 230.35,-302.85 629.58,-591.85 973.22,-575.16 5.58,0.27 11.02,0.75 16.5,1.16z"/>
  </g>
  <path class="fil1" d="M798.16 -12335.13c-190.03,501.04 -283.35,1030.14 -34.17,1506.61 93.76,179.28 365.48,200.11 541.89,110.36 255.47,-129.99 473.58,-523.68 539.69,-638.18 344.36,-596.42 482.02,-2031.44 -559.78,-1544.12 -119.78,56.03 -624.88,439.12 -593.66,647.19 101.68,677.54 1029.09,-319.18 1077.02,-1004.22l1.4 -240.7"/>
  <g id="_1652645231168">
   <path class="fil4" d="M-17049.07 -7994.41c-4.44,9.21 -9.09,18.63 -13.89,28.23 79.1,20.12 158.33,30.44 222.86,26.98 48.77,-2.62 96.08,-7.34 141.75,-15.09 -153.09,-184.88 -396.15,-354.62 -606.3,-333.92 -127.86,12.59 -149.61,113.73 -43.59,195.26 28.36,21.81 62.95,42.28 101.24,60.75 7.1,-14.92 14.05,-29.69 20.76,-44.27 22.67,-48.92 80.7,-70.21 129.62,-47.55 48.92,22.66 70.21,80.69 47.55,129.61zm-52.27 102.92c-135.5,259.45 -331.73,614.11 -177.2,862.73 104.92,168.8 241.19,175.12 403.86,75.63 268.62,-164.29 434.4,-533.78 287.31,-833.77 -17.99,-36.69 -41.4,-75.01 -69.14,-113.39 -57.78,15.17 -117.52,25.08 -177.2,31.27 -76.06,7.89 -172.04,-0.78 -267.63,-22.47zm545.12 -99.71c93.63,-34.36 178.17,-88.85 251.71,-173.88 159.98,-184.98 -109.74,121.8 62.06,-73 -17.96,49.08 -13.39,45.19 -41.38,88.46 -61,94.33 -144.97,158.89 -240.33,202.66 157.12,230.53 191.86,505.72 37.54,796.13 -162.22,305.29 -584.47,617.58 -879.38,292.33 -298.93,-329.67 -89.26,-746.05 79.88,-1092.76 -57.03,-24.88 -107.92,-54.45 -146.71,-87.69 -129.04,-110.57 -107.58,-282.31 51.21,-341.5 186.61,-69.57 438.05,49.15 587.06,159.36 93.52,69.16 174.09,146.31 238.34,229.89z"/>
  </g>
  <path class="fil1" d="M-17137.65 -8035.44c-157.62,340.27 -481.72,815.34 -133.29,1151.49 314.42,303.34 988.27,-332.51 768.73,-880.56 -112.99,-282.04 -497.26,-611.36 -808.29,-577.63 -154.2,16.73 -212.59,161.14 -90.93,267.13 125.67,109.48 399.79,185.89 564.52,170.9 264.21,-24.05 465.56,-99.34 594.46,-333.97"/>
  <path class="fil3" d="M-19726.61 -2765.99c-82.98,0 -153.25,-14.82 -210.82,-44.88 -58,-29.63 -102.45,-73.23 -132.93,-130.81 -30.48,-57.15 -45.72,-126.57 -45.72,-207.43l0 -543.56c0,-85.09 15.24,-157.48 45.72,-217.59 30.48,-59.69 74.93,-105.41 133.35,-136.74 58.42,-31.75 128.27,-47.41 210.4,-47.41 82.55,0 153.24,15.66 212.09,47.41 58.42,31.33 103.29,77.47 133.77,138.01 30.48,60.96 45.72,133.77 45.72,218.86l0 42.33 -232.83 0 0 -42.33c0,-58.42 -13.97,-104.14 -41.07,-136.31 -27.51,-32.18 -65.19,-48.26 -114.3,-48.26 -49.53,0 -88.05,15.66 -115.99,47.83 -27.52,31.75 -41.49,76.63 -41.49,134.2l0 543.56c0,52.07 13.97,92.29 41.49,120.65 27.94,28.79 66.46,42.76 115.99,42.76 49.11,0 87.21,-14.82 114.73,-44.45 27.94,-29.64 41.91,-71.12 41.91,-124.04l0 -41.06 234.1 0 0 41.06c0,81.7 -15.24,151.55 -46.57,209.55 -30.9,58 -75.77,102.02 -134.19,132.93 -58.85,30.48 -129.97,45.72 -213.36,45.72z"/>
  <path id="_1" class="fil3" d="M-18628.91 -4071.98l235.37 0 0 1287.36 -235.37 0 0 -1287.36zm-505.04 0l235.8 0 0 1287.36 -235.8 0 0 -1287.36zm140.13 543.14l512.23 0 0 223.52 -512.23 0 0 -223.52z"/>
  <path id="_2" class="fil3" d="M-17772.93 -2765.99c-77.89,0 -144.78,-14.82 -200.66,-44.03 -55.46,-29.21 -98.21,-71.97 -127.42,-127.85 -29.64,-55.88 -44.03,-122.76 -44.03,-201.5l0 -588.01c0,-77.47 14.39,-143.94 44.03,-198.97 29.21,-55.03 71.96,-96.52 127.42,-125.31 55.88,-28.36 122.77,-42.75 200.66,-42.75 77.47,0 143.93,14.39 198.97,42.75 55.03,28.79 96.52,70.28 125.3,125.31 28.37,55.03 42.76,121.5 42.76,198.97l0 591.82c0,77.47 -14.39,144.35 -42.76,199.81 -28.78,55.03 -70.27,97.37 -125.3,126.15 -55.04,29.21 -121.5,43.61 -198.97,43.61zm-2.54 -229.45c41.91,0 74.93,-13.12 98.64,-38.95 23.28,-26.24 35.13,-63.07 35.13,-111.33l0 -571.5c0,-46.57 -11.85,-82.55 -35.13,-108.38 -23.71,-26.24 -56.73,-39.37 -98.64,-39.37 -41.49,0 -74.08,13.13 -98.21,39.37 -23.71,25.83 -35.99,61.81 -35.99,108.38l0 571.5c0,47.41 11.86,84.24 35.56,110.49 23.29,26.67 56.31,39.79 98.64,39.79z"/>
  <path id="_3" class="fil3" d="M-17009.23 -3007.72l271.35 0c30.06,0 52.92,-9.31 69.01,-27.94 16.08,-18.62 24.13,-45.72 24.13,-81.28l0 -93.13c0,-44.45 -12.7,-79.16 -38.53,-104.14 -25.4,-24.98 -60.11,-37.25 -104.14,-37.25l-221.82 0 0 -223.1 221.82 0c38.1,0 67.31,-10.58 88.06,-31.75 20.74,-21.17 30.9,-50.8 30.9,-88.48l0 -70.69c0,-25.83 -8.04,-46.15 -24.13,-60.96 -16.09,-14.82 -38.52,-22.44 -67.31,-22.44l-249.34 0 0 -223.1 282.78 0c93.14,0 165.53,23.29 216.75,70.28 51.65,46.56 77.05,112.6 77.05,197.69l0 109.22c0,62.66 -16.51,114.73 -50.38,155.37 -33.44,41.06 -80.43,67.31 -141.82,78.74 68.58,11.85 121.92,39.37 159.18,83.39 37.67,43.61 56.72,100.76 56.72,171.03l0 126.58c0,93.13 -27.09,165.94 -80.85,217.59 -53.77,51.65 -129.54,77.47 -228.18,77.47l-291.25 0 0 -223.1zm-149.02 -1064.26l235.8 0 0 1287.36 -235.8 0 0 -1287.36z"/>
  <path id="_4" class="fil3" d="M-15352.3 -4071.98l235.79 0 0 1287.36 -235.79 0 0 -1287.36zm-692.15 1064.26l217.17 0c45.29,0 80.43,-13.54 105.41,-39.79 24.97,-26.67 37.25,-63.5 37.25,-111.76l0 -96.52c0,-32.17 -5.5,-59.69 -16.93,-82.55 -11.01,-22.86 -27.52,-40.22 -48.69,-52.07 -21.59,-11.85 -47.41,-18.2 -77.04,-18.2l-217.17 0 0 -223.1 258.23 0c71.12,0 131.66,13.55 182.03,40.22 50.38,27.09 88.9,66.04 115.57,117.26 26.25,51.22 39.8,113.45 39.8,186.27l0 160.86c0,71.97 -14.4,133.78 -42.34,185 -28.36,51.22 -69.42,90.17 -124.03,117.26 -54.61,26.67 -119.81,40.22 -196.01,40.22l-233.25 0 0 -223.1zm-141.4 -1064.26l235.8 0 0 1287.36 -235.8 0 0 -1287.36z"/>
  <path id="_5" class="fil3" d="M-21119.37 -1023.56l235.37 0 0 1287.36 -235.37 0 0 -1287.36zm-505.04 0l235.8 0 0 1287.36 -235.8 0 0 -1287.36zm140.13 0l498.68 0 0 223.1 -498.68 0 0 -223.1z"/>
  <path id="_6" class="fil3" d="M-20610.95 -1023.56l235.8 0 0 1810.6 -235.8 0 0 -1810.6zm473.71 1305.99c-60.96,0 -114.3,-19.48 -159.17,-58.42 -45.3,-38.95 -77.05,-92.71 -96.1,-162.56l17.36 -199.39c0,42.75 5.93,79.58 17.78,110.49 12.28,30.48 29.63,53.76 52.07,69.85 22.86,16.08 49.95,24.13 81.28,24.13 47.41,0 84.24,-18.21 111.34,-55.04 26.67,-36.83 40.21,-88.47 40.21,-154.51l0 -483.87c0,-63.5 -13.54,-113.46 -40.21,-149.44 -27.1,-35.98 -63.93,-53.76 -111.34,-53.76 -31.33,0 -58.42,8.04 -81.28,23.7 -22.44,15.67 -39.79,38.1 -52.07,68.16 -11.85,29.63 -17.78,65.19 -17.78,106.68l-26.25 -178.65c26.67,-75.35 64.35,-133.35 113.03,-174.41 48.69,-40.64 102.87,-61.38 162.56,-61.38 60.96,0 113.46,16.08 156.64,47.83 43.6,31.75 76.62,78.32 98.63,139.7 22.44,60.96 33.45,135.05 33.45,221.83l0 502.5c0,87.63 -11.43,162.56 -35.14,224.79 -23.71,62.65 -57.57,110.06 -102.45,142.66 -44.45,32.6 -98.63,49.11 -162.56,49.11z"/>
  <path id="_7" class="fil3" d="M-19241.46 282.43c-77.89,0 -144.78,-14.82 -200.66,-44.03 -55.46,-29.21 -98.21,-71.97 -127.42,-127.85 -29.64,-55.88 -44.03,-122.76 -44.03,-201.5l0 -588.01c0,-77.47 14.39,-143.94 44.03,-198.97 29.21,-55.03 71.96,-96.52 127.42,-125.31 55.88,-28.36 122.77,-42.75 200.66,-42.75 77.47,0 143.93,14.39 198.97,42.75 55.03,28.79 96.52,70.28 125.3,125.31 28.37,55.03 42.76,121.5 42.76,198.97l0 591.82c0,77.47 -14.39,144.35 -42.76,199.81 -28.78,55.03 -70.27,97.37 -125.3,126.15 -55.04,29.21 -121.5,43.61 -198.97,43.61zm-2.54 -229.45c41.91,0 74.93,-13.12 98.64,-38.95 23.28,-26.24 35.13,-63.07 35.13,-111.33l0 -571.5c0,-46.57 -11.85,-82.55 -35.13,-108.38 -23.71,-26.24 -56.73,-39.37 -98.64,-39.37 -41.49,0 -74.08,13.13 -98.21,39.37 -23.71,25.83 -35.99,61.81 -35.99,108.38l0 571.5c0,47.41 11.86,84.24 35.56,110.49 23.29,26.67 56.31,39.79 98.64,39.79z"/>
  <path id="_8" class="fil3" d="M-18626.78 -1023.56l235.8 0 0 1287.36 -235.8 0 0 -1287.36zm143.94 0l456.35 0 0 223.1 -456.35 0 0 -223.1z"/>
  <path id="_9" class="fil3" d="M-17846.58 -1023.56l235.8 0 0 1810.6 -235.8 0 0 -1810.6zm473.71 1305.99c-60.96,0 -114.3,-19.48 -159.17,-58.42 -45.3,-38.95 -77.05,-92.71 -96.1,-162.56l17.36 -199.39c0,42.75 5.93,79.58 17.78,110.49 12.28,30.48 29.63,53.76 52.07,69.85 22.86,16.08 49.95,24.13 81.28,24.13 47.41,0 84.24,-18.21 111.34,-55.04 26.67,-36.83 40.21,-88.47 40.21,-154.51l0 -483.87c0,-63.5 -13.54,-113.46 -40.21,-149.44 -27.1,-35.98 -63.93,-53.76 -111.34,-53.76 -31.33,0 -58.42,8.04 -81.28,23.7 -22.44,15.67 -39.79,38.1 -52.07,68.16 -11.85,29.63 -17.78,65.19 -17.78,106.68l-26.25 -178.65c26.67,-75.35 64.35,-133.35 113.03,-174.41 48.69,-40.64 102.87,-61.38 162.56,-61.38 60.96,0 113.46,16.08 156.64,47.83 43.6,31.75 76.62,78.32 98.63,139.7 22.44,60.96 33.45,135.05 33.45,221.83l0 502.5c0,87.63 -11.43,162.56 -35.14,224.79 -23.71,62.65 -57.57,110.06 -102.45,142.66 -44.45,32.6 -98.63,49.11 -162.56,49.11z"/>
  <path id="_10" class="fil3" d="M-16291.25 -677.69c0,-52.07 -13.97,-92.29 -41.48,-120.65 -27.94,-28.79 -66.47,-42.76 -116,-42.76 -44.02,0 -77.89,13.97 -102.44,42.76 -24.13,28.36 -36.41,68.58 -36.41,120.65l-229.45 0c0,-117.27 32.6,-207.86 97.79,-272.21 65.62,-63.92 157.48,-96.09 276.86,-96.09 80.01,0 148.59,14.39 205.74,43.6 57.15,28.79 100.33,70.7 130.39,125.73 29.63,55.03 44.45,121.5 44.45,198.97l0 941.49 -229.45 0 0 -941.49zm-234.52 960.12c-105.84,0 -185,-30.06 -237.92,-89.75 -52.91,-60.11 -79.58,-150.28 -79.58,-271.36 0,-144.35 33.02,-252.73 99.48,-324.27 66.04,-71.54 165.52,-107.1 298.87,-107.1l164.68 0 17.36 210.82 -180.77 0c-57.99,0 -101.6,18.2 -130.38,55.03 -28.79,36.83 -43.18,92.29 -43.18,165.52 0,50.8 12.27,88.06 37.67,113.03 24.98,24.98 63.08,37.26 113.46,37.26 58.84,0 102.44,-16.51 131.23,-49.11 29.21,-32.6 43.6,-81.7 43.6,-146.9l26.25 118.96c-0.85,63.92 -11.01,117.26 -30.48,160.02 -19.47,43.18 -48.26,74.93 -86.78,96.1 -38.53,21.16 -86.36,31.75 -143.51,31.75z"/>
  <polygon id="_11" class="fil3" points="-14148.34,-1023.56 -13921.44,-1023.56 -13921.44,263.8 -14132.26,263.8 -14132.26,-648.91 -14111.09,-594.3 -14268.57,-80.79 -14419.7,-80.79 -14584.8,-569.74 -14556.44,-648.91 -14556.44,263.8 -14767.26,263.8 -14767.26,-1023.56 -14540.35,-1023.56 -14344.35,-357.65 "/>
  <polygon id="_12" class="fil3" points="-13124.72,262.53 -13124.72,-610.38 -13095.09,-578.21 -13459.58,262.53 -13648.39,262.53 -13648.39,-1023.56 -13428.68,-1023.56 -13428.68,-150.64 -13458.31,-182.82 -13091.28,-1023.56 -12905.44,-1023.56 -12905.44,262.53 "/>
  <path id="_13" class="fil3" d="M-12632.81 -1023.56l235.8 0 0 1810.6 -235.8 0 0 -1810.6zm473.71 1305.99c-60.96,0 -114.3,-19.48 -159.17,-58.42 -45.3,-38.95 -77.05,-92.71 -96.1,-162.56l17.36 -199.39c0,42.75 5.93,79.58 17.78,110.49 12.28,30.48 29.63,53.76 52.07,69.85 22.86,16.08 49.95,24.13 81.28,24.13 47.41,0 84.24,-18.21 111.34,-55.04 26.67,-36.83 40.21,-88.47 40.21,-154.51l0 -483.87c0,-63.5 -13.54,-113.46 -40.21,-149.44 -27.1,-35.98 -63.93,-53.76 -111.34,-53.76 -31.33,0 -58.42,8.04 -81.28,23.7 -22.44,15.67 -39.79,38.1 -52.07,68.16 -11.85,29.63 -17.78,65.19 -17.78,106.68l-26.25 -178.65c26.67,-75.35 64.35,-133.35 113.03,-174.41 48.69,-40.64 102.87,-61.38 162.56,-61.38 60.96,0 113.46,16.08 156.64,47.83 43.6,31.75 76.62,78.32 98.63,139.7 22.44,60.96 33.45,135.05 33.45,221.83l0 502.5c0,87.63 -11.43,162.56 -35.14,224.79 -23.71,62.65 -57.57,110.06 -102.45,142.66 -44.45,32.6 -98.63,49.11 -162.56,49.11z"/>
  <path id="_14" class="fil3" d="M-11263.32 282.43c-77.89,0 -144.78,-14.82 -200.66,-44.03 -55.46,-29.21 -98.21,-71.97 -127.42,-127.85 -29.64,-55.88 -44.03,-122.76 -44.03,-201.5l0 -588.01c0,-77.47 14.39,-143.94 44.03,-198.97 29.21,-55.03 71.96,-96.52 127.42,-125.31 55.88,-28.36 122.77,-42.75 200.66,-42.75 77.47,0 143.93,14.39 198.97,42.75 55.03,28.79 96.52,70.28 125.3,125.31 28.37,55.03 42.76,121.5 42.76,198.97l0 591.82c0,77.47 -14.39,144.35 -42.76,199.81 -28.78,55.03 -70.27,97.37 -125.3,126.15 -55.04,29.21 -121.5,43.61 -198.97,43.61zm-2.54 -229.45c41.91,0 74.93,-13.12 98.64,-38.95 23.28,-26.24 35.13,-63.07 35.13,-111.33l0 -571.5c0,-46.57 -11.85,-82.55 -35.13,-108.38 -23.71,-26.24 -56.73,-39.37 -98.64,-39.37 -41.49,0 -74.08,13.13 -98.21,39.37 -23.71,25.83 -35.99,61.81 -35.99,108.38l0 571.5c0,47.41 11.86,84.24 35.56,110.49 23.29,26.67 56.31,39.79 98.64,39.79z"/>
  <path id="_15" class="fil3" d="M-10499.62 40.7l271.35 0c30.06,0 52.92,-9.31 69.01,-27.94 16.08,-18.62 24.13,-45.72 24.13,-81.28l0 -93.13c0,-44.45 -12.7,-79.16 -38.53,-104.14 -25.4,-24.98 -60.11,-37.25 -104.14,-37.25l-221.82 0 0 -223.1 221.82 0c38.1,0 67.31,-10.58 88.06,-31.75 20.74,-21.17 30.9,-50.8 30.9,-88.48l0 -70.69c0,-25.83 -8.04,-46.15 -24.13,-60.96 -16.09,-14.82 -38.52,-22.44 -67.31,-22.44l-249.34 0 0 -223.1 282.78 0c93.14,0 165.53,23.29 216.75,70.28 51.65,46.56 77.05,112.6 77.05,197.69l0 109.22c0,62.66 -16.51,114.73 -50.38,155.37 -33.44,41.06 -80.43,67.31 -141.82,78.74 68.58,11.85 121.92,39.37 159.18,83.39 37.67,43.61 56.72,100.76 56.72,171.03l0 126.58c0,93.13 -27.09,165.94 -80.85,217.59 -53.77,51.65 -129.54,77.47 -228.18,77.47l-291.25 0 0 -223.1zm-149.02 -1064.26l235.8 0 0 1287.36 -235.8 0 0 -1287.36z"/>
  <path id="_16" class="fil3" d="M-9142.84 -677.69c0,-52.07 -13.97,-92.29 -41.48,-120.65 -27.94,-28.79 -66.47,-42.76 -116,-42.76 -44.02,0 -77.89,13.97 -102.44,42.76 -24.13,28.36 -36.41,68.58 -36.41,120.65l-229.45 0c0,-117.27 32.6,-207.86 97.79,-272.21 65.62,-63.92 157.48,-96.09 276.86,-96.09 80.01,0 148.59,14.39 205.74,43.6 57.15,28.79 100.33,70.7 130.39,125.73 29.63,55.03 44.45,121.5 44.45,198.97l0 941.49 -229.45 0 0 -941.49zm-234.52 960.12c-105.84,0 -185,-30.06 -237.92,-89.75 -52.91,-60.11 -79.58,-150.28 -79.58,-271.36 0,-144.35 33.02,-252.73 99.48,-324.27 66.04,-71.54 165.52,-107.1 298.87,-107.1l164.68 0 17.36 210.82 -180.77 0c-57.99,0 -101.6,18.2 -130.38,55.03 -28.79,36.83 -43.18,92.29 -43.18,165.52 0,50.8 12.27,88.06 37.67,113.03 24.98,24.98 63.08,37.26 113.46,37.26 58.84,0 102.44,-16.51 131.23,-49.11 29.21,-32.6 43.6,-81.7 43.6,-146.9l26.25 118.96c-0.85,63.92 -11.01,117.26 -30.48,160.02 -19.47,43.18 -48.26,74.93 -86.78,96.1 -38.53,21.16 -86.36,31.75 -143.51,31.75z"/>
  <path id="_17" class="fil3" d="M-8135.73 -1023.56l235.37 0 0 1287.36 -235.37 0 0 -1287.36zm-505.04 0l235.8 0 0 1287.36 -235.8 0 0 -1287.36zm140.13 543.14l512.23 0 0 223.52 -512.23 0 0 -223.52z"/>
  <polygon id="_18" class="fil3" points="-7103.64,262.53 -7103.64,-610.38 -7074.01,-578.21 -7438.5,262.53 -7627.31,262.53 -7627.31,-1023.56 -7407.6,-1023.56 -7407.6,-150.64 -7437.23,-182.82 -7070.2,-1023.56 -6884.36,-1023.56 -6884.36,262.53 "/>
  <path id="_19" class="fil3" d="M-6311.58 -151.49c-71.12,0 -131.66,-13.55 -182.04,-40.64 -50.8,-26.67 -88.9,-65.62 -115.57,-117.26 -26.24,-51.23 -39.79,-113.03 -39.79,-185.85l0 -185.84c0,-71.97 14.39,-133.77 42.33,-185 27.94,-51.22 69.43,-90.17 124.04,-117.26 54.61,-26.67 119.8,-40.22 196,-40.22l282.79 0 0 223.1 -266.7 0c-45.3,0 -80.86,13.55 -105.41,39.79 -24.98,26.67 -37.25,63.5 -37.25,111.76l0 121.5c0,32.17 5.5,59.69 16.93,82.55 11.01,22.44 27.52,39.79 48.68,52.07 21.59,11.85 47.42,17.78 77.05,17.78l266.7 0 0 223.52 -307.76 0zm194.73 415.29l0 -1287.36 235.8 0 0 1287.36 -235.8 0zm-520.7 0l219.29 -553.3 226.9 57.15 -195.58 496.15 -250.61 0z"/>
  <path id="_20" class="fil3" d="M-18531.12 2370.73c0,-52.07 -13.97,-92.29 -41.48,-120.65 -27.94,-28.79 -66.47,-42.76 -116,-42.76 -44.02,0 -77.89,13.97 -102.44,42.76 -24.13,28.36 -36.41,68.58 -36.41,120.65l-229.45 0c0,-117.27 32.6,-207.86 97.79,-272.21 65.62,-63.92 157.48,-96.09 276.86,-96.09 80.01,0 148.59,14.39 205.74,43.6 57.15,28.79 100.33,70.7 130.39,125.73 29.63,55.03 44.45,121.5 44.45,198.97l0 941.49 -229.45 0 0 -941.49zm-234.52 960.12c-105.84,0 -185,-30.06 -237.92,-89.75 -52.91,-60.11 -79.58,-150.28 -79.58,-271.36 0,-144.35 33.02,-252.73 99.48,-324.27 66.04,-71.54 165.52,-107.1 298.87,-107.1l164.68 0 17.36 210.82 -180.77 0c-57.99,0 -101.6,18.2 -130.38,55.03 -28.79,36.83 -43.18,92.29 -43.18,165.52 0,50.8 12.27,88.06 37.67,113.03 24.98,24.98 63.08,37.26 113.46,37.26 58.84,0 102.44,-16.51 131.23,-49.11 29.21,-32.6 43.6,-81.7 43.6,-146.9l26.25 118.96c-0.85,63.92 -11.01,117.26 -30.48,160.02 -19.47,43.18 -48.26,74.93 -86.78,96.1 -38.53,21.16 -86.36,31.75 -143.51,31.75z"/>
  <polygon id="_21" class="fil3" points="-17501.99,2024.86 -17267.47,2024.86 -17615.87,3312.22 -17802.14,3312.22 -18153.08,2024.86 -17917.28,2024.86 -17709,2972.28 "/>
  <path id="_22" class="fil3" d="M-16548.23 2370.73c0,-52.07 -13.97,-92.29 -41.48,-120.65 -27.94,-28.79 -66.47,-42.76 -116,-42.76 -44.02,0 -77.89,13.97 -102.44,42.76 -24.13,28.36 -36.41,68.58 -36.41,120.65l-229.45 0c0,-117.27 32.6,-207.86 97.79,-272.21 65.62,-63.92 157.48,-96.09 276.86,-96.09 80.01,0 148.59,14.39 205.74,43.6 57.15,28.79 100.33,70.7 130.39,125.73 29.63,55.03 44.45,121.5 44.45,198.97l0 941.49 -229.45 0 0 -941.49zm-234.52 960.12c-105.84,0 -185,-30.06 -237.92,-89.75 -52.91,-60.11 -79.58,-150.28 -79.58,-271.36 0,-144.35 33.02,-252.73 99.48,-324.27 66.04,-71.54 165.52,-107.1 298.87,-107.1l164.68 0 17.36 210.82 -180.77 0c-57.99,0 -101.6,18.2 -130.38,55.03 -28.79,36.83 -43.18,92.29 -43.18,165.52 0,50.8 12.27,88.06 37.67,113.03 24.98,24.98 63.08,37.26 113.46,37.26 58.84,0 102.44,-16.51 131.23,-49.11 29.21,-32.6 43.6,-81.7 43.6,-146.9l26.25 118.96c-0.85,63.92 -11.01,117.26 -30.48,160.02 -19.47,43.18 -48.26,74.93 -86.78,96.1 -38.53,21.16 -86.36,31.75 -143.51,31.75z"/>
  <path id="_23" class="fil3" d="M-21630.33 2024.86l235.37 0 0 1287.36 -235.37 0 0 -1287.36zm-505.04 0l235.8 0 0 1287.36 -235.8 0 0 -1287.36zm140.13 543.14l512.23 0 0 223.52 -512.23 0 0 -223.52z"/>
  <path id="_24" class="fil3" d="M-20588.51 2370.73c0,-52.07 -13.97,-92.29 -41.48,-120.65 -27.94,-28.79 -66.47,-42.76 -116,-42.76 -44.02,0 -77.89,13.97 -102.44,42.76 -24.13,28.36 -36.41,68.58 -36.41,120.65l-229.45 0c0,-117.27 32.6,-207.86 97.79,-272.21 65.62,-63.92 157.48,-96.09 276.86,-96.09 80.01,0 148.59,14.39 205.74,43.6 57.15,28.79 100.33,70.7 130.39,125.73 29.63,55.03 44.45,121.5 44.45,198.97l0 941.49 -229.45 0 0 -941.49zm-234.52 960.12c-105.84,0 -185,-30.06 -237.92,-89.75 -52.91,-60.11 -79.58,-150.28 -79.58,-271.36 0,-144.35 33.02,-252.73 99.48,-324.27 66.04,-71.54 165.52,-107.1 298.87,-107.1l164.68 0 17.36 210.82 -180.77 0c-57.99,0 -101.6,18.2 -130.38,55.03 -28.79,36.83 -43.18,92.29 -43.18,165.52 0,50.8 12.27,88.06 37.67,113.03 24.98,24.98 63.08,37.26 113.46,37.26 58.84,0 102.44,-16.51 131.23,-49.11 29.21,-32.6 43.6,-81.7 43.6,-146.9l26.25 118.96c-0.85,63.92 -11.01,117.26 -30.48,160.02 -19.47,43.18 -48.26,74.93 -86.78,96.1 -38.53,21.16 -86.36,31.75 -143.51,31.75z"/>
  <g id="_1652645223824">
   <path class="fil0" d="M-20517.55 1196.25c719.42,-142.7 1474.17,-277.14 2199.13,-386.96 69.56,-10.54 263.21,-41.56 324.88,-39.64l86.72 12.63 -68.63 54.71c-53.82,33.39 -238.07,100.29 -304.65,124.11 -679.81,243.29 -1444.38,427.92 -2144.57,623.27 -107.17,25.65 -214.85,-40.44 -240.5,-147.62 -25.65,-107.17 40.45,-214.85 147.62,-240.5z"/>
  </g>
  <path class="fil1" d="M-20471.11 1390.31c832.98,-199.32 1738.22,-382.27 2564.29,-608.03"/>
  <g id="_1652645220464">
   <path class="fil0" d="M-18799.01 828.74c-237.76,829.31 -464.89,1821.91 -807.99,2606.14 -79.88,182.58 -338.08,699.17 -509.59,793.27 -75.88,41.64 -180.94,45.08 -254.11,-2.76l-48.86 -45.83 64.22 -1.49 49.55 3.06c142.51,-0.39 195.69,-112.23 249.82,-228.15 99.13,-212.31 199.19,-455.64 269.32,-678.7 255.97,-814.23 408.16,-1712.88 601.62,-2546.76 27.95,-106.6 137.02,-170.35 243.62,-142.4 106.6,27.95 170.35,137.02 142.4,243.62z"/>
  </g>
  <path class="fil1" d="M-18992.02 778.13c-161.18,614.77 -518.32,2271.36 -839.66,2895.62 -196.17,381.1 -271.78,649.39 -587.88,505.81"/>
  <g id="_1652645218592">
   <path class="fil0" d="M-15975.08 -8.09c96.84,-254.07 538.02,-1438.08 615.05,-1474.6 45.08,-21.37 70.43,101.6 47.31,272.82 -32.63,241.67 -106.99,561.33 -161.12,856.53 103.87,-213.74 275.71,-567.55 299.5,-613.61 56.7,-109.78 309.9,-639.08 291.78,-269.4 -7.87,160.61 -18.57,304.04 -25.51,476.4 -21.42,531.15 -33.14,1084.88 -36.28,1592.61 -0.89,144.84 1.25,68.2 -5.02,210.12l-15.38 -60.78c-43.44,-264.68 -40.31,-1387.92 -21.67,-1961.17 -100.58,164.89 -267.06,542.32 -353.33,736.79 -62.99,141.98 -207.53,518.58 -264.83,517.68 -86.84,-1.36 -43.1,-371.78 20.68,-752.11 -110.25,289.52 -218.77,588.05 -328.56,890.85 -46.38,124.52 -98.01,130.97 -115.3,14.4 -17.29,-116.57 6.3,-312.01 52.68,-436.53z"/>
  </g>
  <path class="fil1" d="M-15943.77 202.98c0.98,-2.62 581.23,-1566.86 561.39,-1410.35 -33.19,261.72 -334.07,1600.13 -134.74,1157.48 93.8,-208.29 523.05,-1167.8 586.34,-1148.85 -32.7,462.6 -50.87,1874.16 -18.59,2241.52"/>
  <g id="_1652645259440">
   <path class="fil0" d="M-21268.79 -4284.63c-13.68,36.18 -27.02,72.58 -39.88,109.16 32.45,-7.32 69.69,-25.3 111.36,-49.11 210.58,-120.34 431.15,-385.07 572.62,-673.41 -12.35,1.01 -24.98,2.38 -38.08,4.39 -216.05,33.1 -456.2,187.25 -632.42,367.85 44.87,64.65 57.61,158.83 26.4,241.12zm-105.93 317.6c-90.31,325.48 -115.7,660.49 46.42,983.09 57.04,113.5 292.97,79.29 384.11,23.61 243.81,-148.94 505.04,-593.87 598.62,-904.17 106.64,-353.58 182.35,-956.6 -168.13,-1028.19 -87.93,240.65 -233.39,461.95 -370.7,620.27 -111.97,129.11 -318.15,313.34 -490.32,305.39zm861.17 -1220.17c10.88,-39.81 19.72,-79.33 26.3,-118.22l-0.11 2.88c12.27,-161.09 2.25,-80.93 30.27,-240.43l0.01 0 19.72 120.53c9.2,81.05 7.03,163.39 -4.11,245.44 488.45,103.36 491.48,852.72 375.33,1343.62 -100.4,424.32 -378.15,934.03 -682.23,1172.55 -245.72,192.74 -666.47,230.43 -850.6,-101.83 -284.77,-513.87 -197.16,-1100.29 -18.08,-1634.51 5.92,-25.02 14.49,-49.46 25.37,-73.65l1.54 -4.37c8.12,-21.42 18.65,-40.46 30.96,-56.88 16.29,-26.86 35.09,-53.75 55.91,-81.13 230.35,-302.85 629.58,-591.85 973.22,-575.16 5.58,0.27 11.02,0.75 16.5,1.16z"/>
  </g>
  <path class="fil1" d="M-21429.47 -4379.91c-190.03,501.04 -283.35,1030.14 -34.17,1506.61 93.76,179.28 365.48,200.11 541.89,110.36 255.47,-129.99 473.58,-523.68 539.69,-638.18 344.36,-596.42 482.02,-2031.44 -559.78,-1544.12 -119.78,56.03 -624.88,439.12 -593.66,647.19 101.68,677.54 1029.09,-319.18 1077.02,-1004.22l1.4 -240.7"/>
  <g transform="matrix(0.990445 -0.137908 0.137908 0.990445 -6751.86 2912.21)">
   <path class="fil3" d="M3864.07 6501.12c-76.73,10.68 -145.03,5.23 -204.4,-16 -58.96,-21.28 -107.2,-57.74 -143.84,-109.05 -37.06,-51.26 -60.53,-115.52 -71.39,-193.51l-81.04 -581.97c-10.74,-77.15 -5.59,-144.54 16.17,-203.14 21.35,-58.54 57.91,-105.94 108.93,-141.68 51.37,-36.22 115.7,-59.28 192.43,-69.96 77.14,-10.75 144.89,-6.07 203.38,14.85 58,20.56 105.29,56.29 140.96,106.88 36.11,50.54 59.05,114.03 69.8,191.17l81.55 585.75c10.75,77.15 6.07,144.9 -14.79,203.8 -20.5,58.41 -56.17,106.13 -106.29,142.17 -50.49,36.52 -114.33,59.95 -191.47,70.69zm-33.75 -226.97c41.51,-5.78 72.41,-23.33 91.9,-52.12 19.87,-29.26 26.53,-67.37 19.93,-114.75l-78.87 -566.46c-6.37,-45.71 -23.12,-80.13 -50.17,-102.44 -26.68,-22.78 -61.13,-30.8 -102.64,-25.02 -41.09,5.72 -71.62,22.79 -91.9,52.11 -20.34,28.91 -27.07,66.6 -20.7,112.31l78.87 566.45c6.48,46.54 23.31,81.38 50.4,104.11 26.75,23.21 61.26,31.65 103.18,25.81z"/>
   <path id="_1_0" class="fil3" d="M5435.04 5362.15c-9.11,-65.41 -28.89,-112.24 -59.37,-140.9 -30.86,-28.2 -72.49,-38.64 -124.9,-31.34 -49.05,6.83 -83.2,28.68 -102.91,65.19 -19.29,36.45 -24.44,88.46 -14.92,156.8l-57.59 -171.07c14.67,-84.96 44.78,-151.13 90.64,-199.39 45.48,-47.8 100.91,-76.46 166.32,-85.57 59.95,-8.35 112.07,-2.36 157.32,18.7 44.77,20.7 82.06,55.25 110.57,103.42 28.93,48.12 48.52,109.08 58.8,182.87l132.7 953.05 -233.54 32.51 -123.12 -884.27zm-1127.8 -241.33l233.55 -32.52 177.53 1275.06 -233.54 32.52 -177.54 -1275.06zm591.1 316.05c-9.1,-65.41 -28.04,-112.35 -56.43,-141.3 -28.76,-28.49 -67.45,-39.34 -116.51,-32.51 -52.41,7.3 -89.49,29.56 -111.23,66.78 -21.33,37.16 -27.32,89.28 -17.92,156.79l-51.51 -179.61c17.89,-83.28 49.02,-148.3 93.85,-194.72 44.89,-46 100.42,-73.82 166.67,-83.04 57.44,-8 107.89,-1.78 151.76,18.61 43.93,20.82 79.49,55.19 107.58,103.42 28.08,48.24 47.27,109.25 57.54,183.04l132.87 954.3 -233.54 32.52 -123.13 -884.28z"/>
   <path id="_2_1" class="fil3" d="M6442.29 6142.13c-81.77,11.39 -154.12,4.36 -216.17,-20.77 -62.48,-25.06 -113.22,-67.15 -153.01,-125.73 -39.36,-58.63 -65.08,-132.83 -77.51,-222.14l-62.06 -445.71c-13.14,-94.34 -9.67,-176.89 11.18,-248.17 20.42,-71.23 56.49,-128.4 108.25,-171.09 51.33,-42.61 116.87,-69.27 196.54,-80.36 80.07,-11.15 151.06,-4.79 213,19.49 61.99,24.71 112.14,65.61 150.49,123.1 38.41,57.9 63.89,130.43 76.09,218.07l46.88 336.69 -597.06 83.13 -26.85 -192.88 373.58 -52.02 -19.32 -138.78c-9.28,-66.66 -30.24,-115.89 -62.52,-148.15 -32.63,-31.79 -74.14,-44.39 -124.87,-37.33 -49.06,6.83 -84.59,31.02 -106.47,73.39 -21.47,42.3 -27.23,99.1 -17.3,170.38l64.8 465.41c8.64,62.05 29.66,108.71 63.02,139.53 33.78,30.78 76.48,42.78 128.89,35.49 48.22,-6.72 84.15,-24.97 106.94,-54.64 23.28,-29.31 31.13,-68.03 24.54,-115.4l-1.17 -8.39 223.9 -31.17 1.17 8.39c16.28,116.98 -4.23,212.16 -60.76,284.99 -56.48,73.26 -144.71,118.03 -264.2,134.67z"/>
   <path id="_3_2" class="fil3" d="M7914.19 5924.79c-103.15,14.36 -183.01,-3.59 -239.05,-53.05 -56.1,-49.89 -92.15,-130.78 -107.8,-243.16l-182.96 -1314.04 233.53 -32.52 182.97 1314.04c5.14,36.91 17.08,64.3 35.87,82.64 18.79,18.32 43.25,25.17 73.87,20.91l93.08 -12.96 30.82 221.38 -120.33 16.76zm-608.19 -1221.51l550.11 -76.6 30.83 221.39 -550.12 76.59 -30.82 -221.38z"/>
   <path id="_4_3" class="fil3" d="M8622.59 5838.55c-81.76,11.38 -154.11,4.35 -216.17,-20.77 -62.47,-25.06 -113.21,-67.16 -153,-125.73 -39.36,-58.63 -65.08,-132.83 -77.51,-222.14l-62.06 -445.71c-13.14,-94.34 -9.67,-176.89 11.18,-248.17 20.42,-71.23 56.49,-128.4 108.25,-171.09 51.33,-42.61 116.86,-69.27 196.53,-80.36 80.08,-11.15 151.07,-4.79 213.01,19.49 61.99,24.71 112.14,65.6 150.49,123.09 38.4,57.91 63.89,130.44 76.09,218.07l46.88 336.7 -597.06 83.13 -26.86 -192.88 373.59 -52.02 -19.32 -138.78c-9.29,-66.67 -30.25,-115.9 -62.52,-148.15 -32.64,-31.8 -74.14,-44.39 -124.87,-37.33 -49.06,6.83 -84.59,31.01 -106.47,73.39 -21.47,42.3 -27.23,99.1 -17.31,170.38l64.81 465.41c8.63,62.05 29.66,108.71 63.02,139.53 33.78,30.78 76.48,42.78 128.88,35.49 48.23,-6.72 84.16,-24.97 106.95,-54.64 23.27,-29.31 31.13,-68.03 24.53,-115.4l-1.17 -8.39 223.9 -31.17 1.17 8.39c16.29,116.98 -4.22,212.15 -60.76,284.99 -56.47,73.26 -144.7,118.03 -264.2,134.67z"/>
   <path id="_5_4" class="fil3" d="M9414.73 5119.61l-445.81 -647.87 257.02 -35.79 322.76 537.64 492.1 648.68 -255.35 35.56 -370.72 -538.22zm-7.95 -121.57l139.18 192.2 -163.45 523.69 -255.35 35.55 279.62 -751.44zm45.04 -106.28l135.13 -506.07 256.6 -35.73 -264.65 733.11 -127.08 -191.31z"/>
   <path id="_6_5" class="fil3" d="M10553 5557.37c-103.15,14.36 -183,-3.59 -239.05,-53.06 -56.1,-49.89 -92.15,-130.78 -107.79,-243.15l-182.97 -1314.05 233.54 -32.51 182.96 1314.04c5.14,36.9 17.08,64.3 35.87,82.63 18.8,18.33 43.26,25.18 73.87,20.92l93.08 -12.97 30.83 221.39 -120.34 16.76zm-608.19 -1221.51l550.12 -76.6 30.82 221.38 -550.11 76.6 -30.83 -221.38z"/>
   <path id="_7_6" class="fil3" d="M12779.64 5259.73c-81.76,11.39 -154.11,4.36 -216.17,-20.77 -62.47,-25.06 -113.21,-67.15 -153,-125.73 -39.36,-58.63 -65.08,-132.83 -77.52,-222.14l-62.06 -445.71c-13.13,-94.34 -9.66,-176.89 11.18,-248.17 20.43,-71.23 56.5,-128.4 108.25,-171.09 51.34,-42.61 116.87,-69.27 196.54,-80.36 80.08,-11.15 151.06,-4.79 213,19.49 61.99,24.71 112.14,65.61 150.5,123.1 38.4,57.9 63.89,130.43 76.09,218.07l46.88 336.69 -597.06 83.13 -26.86 -192.88 373.59 -52.02 -19.33 -138.78c-9.28,-66.66 -30.24,-115.89 -62.52,-148.15 -32.63,-31.79 -74.14,-44.39 -124.87,-37.33 -49.05,6.83 -84.59,31.02 -106.46,73.39 -21.47,42.3 -27.24,99.1 -17.31,170.38l64.8 465.41c8.64,62.05 29.67,108.71 63.03,139.53 33.77,30.78 76.48,42.78 128.88,35.49 48.23,-6.72 84.15,-24.97 106.95,-54.64 23.27,-29.31 31.12,-68.03 24.53,-115.4l-1.17 -8.39 223.9 -31.17 1.17 8.39c16.29,116.98 -4.22,212.16 -60.76,284.99 -56.48,73.26 -144.7,118.03 -264.2,134.67z"/>
   <path id="_8_7" class="fil3" d="M13235.39 3877.68l233.55 -32.51 177.53 1275.05 -233.55 32.52 -177.53 -1275.06zm613.07 130.06c-5.86,0.82 -12.15,1.69 -19.28,2.68 -6.71,0.94 -15.1,2.11 -25.16,3.51 -94.76,13.19 -166.18,46.65 -213.37,100.66 -46.83,53.53 -65.63,121.12 -56.04,202.28l-60.67 -245.44c31.19,-82.99 76.09,-150.36 135.54,-202.24 58.98,-52.23 127.7,-83.6 206.52,-94.57 0,0 0,0 0,0 0,0 0,0 0,0l32.46 233.12z"/>
   <path id="_9_8" class="fil3" d="M14554.5 5012.6c-81.77,11.39 -154.12,4.36 -216.17,-20.76 -62.48,-25.07 -113.22,-67.16 -153,-125.74 -39.37,-58.63 -65.09,-132.83 -77.52,-222.14l-62.06 -445.71c-13.14,-94.34 -9.67,-176.88 11.18,-248.17 20.42,-71.23 56.49,-128.4 108.25,-171.08 51.34,-42.62 116.87,-69.27 196.54,-80.37 80.08,-11.15 151.06,-4.78 213,19.5 61.99,24.7 112.14,65.6 150.49,123.09 38.41,57.9 63.89,130.43 76.09,218.07l46.89 336.69 -597.06 83.13 -26.86 -192.88 373.59 -52.01 -19.33 -138.78c-9.28,-66.67 -30.24,-115.9 -62.52,-148.16 -32.63,-31.79 -74.14,-44.39 -124.87,-37.32 -49.05,6.83 -84.59,31.01 -106.47,73.38 -21.47,42.3 -27.23,99.1 -17.3,170.38l64.8 465.41c8.64,62.06 29.66,108.71 63.02,139.54 33.78,30.77 76.48,42.78 128.89,35.48 48.22,-6.71 84.15,-24.96 106.95,-54.64 23.27,-29.31 31.12,-68.02 24.53,-115.4l-1.17 -8.38 223.9 -31.18 1.17 8.39c16.28,116.98 -4.23,212.16 -60.76,284.99 -56.48,73.26 -144.71,118.03 -264.2,134.67z"/>
  </g>
  <g id="_1652645244320">
   <path class="fil0" d="M2881.76 5521.94c-60.61,-6.01 -160.52,-17.62 -218.66,6.37l-0.02 -0.24c-12.31,73.13 56.92,215.11 103.39,267.15 168.05,188.18 573.8,406.8 430.83,724.35 -107.06,237.79 -399.69,333.28 -644.67,308.38 -330.36,-33.59 -852.57,-324 -849.13,-695.76 1.4,-151.48 123.47,-300.09 263.84,-340.21 41.71,-11.92 50.41,-9.58 86.65,5.34 -29.57,16.06 -61.6,26.86 -88.24,47.95 -301.77,238.91 -114.5,494.56 149.94,650.74 241.15,142.43 693.26,246.11 864.97,-49.61 74.61,-128.5 -261.17,-338.17 -349.75,-416.55 -136.7,-120.95 -258.1,-321.29 -250.24,-510.88 12.04,-290.17 309.63,-308.85 530,-295.91 82.53,7.98 142.97,81.36 134.98,163.89 -7.98,82.53 -81.35,142.97 -163.89,134.99zm-218.34 4.29c0.21,-0.38 0.52,-0.96 0.96,-1.99l-0.53 -0.18c-0.16,0.71 -0.29,1.44 -0.43,2.17z"/>
  </g>
  <path class="fil1" d="M2896.21 5372.5c-328.11,-31.73 -480.52,51.29 -294.92,420.94 124.76,248.49 805.6,490.87 357.99,835.56 -505.89,389.57 -1661.09,-396.38 -1006.81,-804.99 28.8,-17.99 67.94,-28.16 101.52,-26.69"/>
 </g>
</svg>
